# xmcd
#
# Track frame offsets:
#	150
#	17489
#	38671
#	61494
#	79262
#	102228
#	125913
#	144237
#	163448
#	178448
#	208392
#	223707
#	235409
#	258200
#	276081
#	298289
#	313516
#
# Disc length: 4419 seconds
#
# Revision: 2
# Processed by: cddbd v1.5.2PL0 Copyright (c) Steve Scherf et al.
# Submitted via: audiograbber 1.83.01
#
DISCID=10114111
DTITLE=Trembling Highburys - Past And Present
DYEAR=2005
DGENRE=Pop
TTITLE0=Trembling Highburys - Unbelievable Screen
TTITLE1=Trembling Highburys - My Own Road
TTITLE2=Trembling Highburys - Fred
TTITLE3=Trembling Highburys - The Last Haircut
TTITLE4=Trembling Highburys - Love Crash
TTITLE5=Trembling Highburys - I Know You Know
TTITLE6=Trembling Highburys - Slide On Over
TTITLE7=Trembling Highburys - Heroin Mama
TTITLE8=Trembling Highburys - Past And Present
TTITLE9=Trembling Highburys - The Chief Cried
TTITLE10=Trembling Highburys - The Moon Is Mine
TTITLE11=Trembling Highburys - Burning On The Inside
TTITLE12=Trembling Highburys - Under My Trembling Trees
TTITLE13=Trembling Highburys - Only Night Time
TTITLE14=Trembling Highburys - Three Chord Song
TTITLE15=Trembling Highburys - Six String Love Affair
TTITLE16=Trembling Highburys - Do You Like It
EXTD=
EXTT0=
EXTT1=
EXTT2=
EXTT3=
EXTT4=
EXTT5=
EXTT6=
EXTT7=
EXTT8=
EXTT9=
EXTT10=
EXTT11=
EXTT12=
EXTT13=
EXTT14=
EXTT15=
EXTT16=
PLAYORDER=
